<svg width="15" height="14" viewBox="0 0 15 14" fill="none" xmlns="http://www.w3.org/2000/svg">
<path d="M12.4996 1.74999H11.8742V0.583679H10.6246V1.74999H4.37425V0.583679H3.12463V1.74999H2.49925C2.16801 1.75112 1.85069 1.87451 1.61658 2.09323C1.38246 2.31194 1.25055 2.60821 1.24963 2.91737V12.2511C1.25085 12.56 1.3829 12.856 1.61698 13.0745C1.85107 13.293 2.1682 13.4162 2.49925 13.4174H12.4996C12.8307 13.4162 13.1478 13.293 13.3819 13.0745C13.616 12.856 13.748 12.56 13.7492 12.2511V2.91737C13.7483 2.60821 13.6164 2.31194 13.3823 2.09323C13.1482 1.87451 12.8309 1.75112 12.4996 1.74999ZM12.4996 12.25H2.49925V4.66737H12.4996V12.25Z" fill="#707070"/>
<path d="M6.92305 6.46155H4.61536V8.61539H6.92305V6.46155Z" fill="white"/>
<path d="M6.34611 7H5.19226V8.07692H6.34611V7Z" stroke="#707070"/>
</svg>
