<svg width="34" height="48" viewBox="0 0 34 48" fill="none" xmlns="http://www.w3.org/2000/svg">
<g clip-path="url(#clip0_51549_70750)">
<path d="M33.15 7.71432H4.24998C2.37998 7.71432 0.849976 6.17146 0.849976 4.28575C0.849976 2.40003 2.37998 0.857178 4.24998 0.857178H29.75" stroke="#666666" stroke-width="2" stroke-linecap="round" stroke-linejoin="round"/>
<path d="M33.15 7.71434V42.0001H4.24998C2.37998 42.0001 0.849976 40.4572 0.849976 38.5715V4.28577" stroke="#666666" stroke-width="2" stroke-linecap="round" stroke-linejoin="round"/>
<path d="M5.94995 7.71436V42.0001" stroke="#666666" stroke-width="2" stroke-linecap="round" stroke-linejoin="round"/>
<path d="M29.7499 0.857178C29.2739 3.65146 30.6509 6.42861 33.1499 7.71432" stroke="#666666" stroke-width="2" stroke-linecap="round" stroke-linejoin="round"/>
<path d="M14.45 42V47.1429H9.34998V42" stroke="#666666" stroke-width="2" stroke-linecap="round" stroke-linejoin="round"/>
<path d="M11.0499 34.4914L19.1419 26.3314C22.1849 27.3771 24.8369 26.2971 24.8369 26.2971C29.0189 22.5086 27.9139 17.2457 27.9139 17.2457L23.3919 21.8057C23.3919 21.8057 21.7599 21.8057 20.4679 20.5029C19.1759 19.2 19.1759 17.5543 19.1759 17.5543L23.6979 12.9943C23.6979 12.9943 18.4789 11.88 14.7219 16.0971C14.7219 16.0971 13.6509 18.7543 14.6879 21.84L11.0499 25.5086" stroke="#666666" stroke-width="2" stroke-linecap="round" stroke-linejoin="round"/>
</g>
<defs>
<clipPath id="clip0_51549_70750">
<rect width="34" height="48" fill="white"/>
</clipPath>
</defs>
</svg>
