<svg width="41" height="45" viewBox="0 0 41 45" fill="none" xmlns="http://www.w3.org/2000/svg">
<path d="M32.7592 19H36.5521C38.4566 19 40 20.5645 40 22.4951V32.6318C40 34.5624 38.4566 36.1269 36.5521 36.1269H34.8275V38.9492C34.8275 39.8672 33.7462 40.3422 33.0857 39.7144L29.3102 36.1269H23.4479C21.5434 36.1269 20 34.5624 20 32.6318V26.3398" stroke="#666666" stroke-width="2" stroke-linecap="round" stroke-linejoin="round"/>
<path d="M31.6895 28.5147C31.6895 29.0681 31.2429 29.5146 30.6894 29.5146C30.136 29.5146 29.6895 29.0681 29.6895 28.5147C29.6895 27.9612 30.136 27.5146 30.6894 27.5146C31.2429 27.5146 31.6895 27.9612 31.6895 28.5147Z" fill="#666666"/>
<path d="M36.6377 28.5147C36.6377 29.0681 36.1912 29.5146 35.6377 29.5146C35.0842 29.5146 34.6377 29.0681 34.6377 28.5147C34.6377 27.9612 35.0842 27.5146 35.6377 27.5146C36.1912 27.5146 36.6377 27.9612 36.6377 28.5147Z" fill="#666666"/>
<path d="M26.7412 28.5147C26.7412 29.0681 26.2947 29.5146 25.7412 29.5146C25.1877 29.5146 24.7412 29.0681 24.7412 28.5147C24.7412 27.9612 25.1877 27.5146 25.7412 27.5146C26.2947 27.5146 26.7412 27.9612 26.7412 28.5147Z" fill="#666666"/>
<path d="M7.98734 23.727H5.89158C3.19028 23.727 1 21.8524 1 19.5405V5.18648C1 2.87456 3.19028 1 5.89158 1H25.1084C27.8097 1 30 2.87456 30 5.18648V19.5405C30 21.8524 27.8097 23.727 25.1084 23.727H16.3737L10.3524 28.665C9.46328 29.3939 7.98734 28.855 7.98734 27.8016V23.727Z" stroke="#666666" stroke-width="2" stroke-linecap="round" stroke-linejoin="round"/>
<path d="M12.2465 11.0066C12.0563 10.5058 11.9683 9.94957 12.0103 9.36826C12.1434 7.54487 13.6136 6.07173 15.363 6.00273C17.3587 5.92327 19 7.58983 19 9.65682C19 10.6501 17.9331 11.8294 16.7312 12.7787C15.9465 13.3977 15.5002 14.3774 15.5002 15.4041V16" stroke="#666666" stroke-width="2" stroke-linecap="round" stroke-linejoin="round"/>
<path d="M17 19.4751C17 20.0286 16.5535 20.4751 16 20.4751C15.4465 20.4751 15 20.0286 15 19.4751C15 18.9216 15.4465 18.4751 16 18.4751C16.5535 18.4751 17 18.9216 17 19.4751Z" fill="#666666"/>
</svg>
