<svg width="35" height="36" viewBox="0 0 35 36" fill="none" xmlns="http://www.w3.org/2000/svg">
<g clip-path="url(#clip0_51550_70464)">
<path d="M13.125 32.5833C13.9304 32.5833 14.5834 31.9304 14.5834 31.125C14.5834 30.3196 13.9304 29.6667 13.125 29.6667C12.3196 29.6667 11.6667 30.3196 11.6667 31.125C11.6667 31.9304 12.3196 32.5833 13.125 32.5833Z" stroke="#666666" stroke-width="2" stroke-linecap="round" stroke-linejoin="round"/>
<path d="M29.1666 32.5833C29.9721 32.5833 30.625 31.9304 30.625 31.125C30.625 30.3196 29.9721 29.6667 29.1666 29.6667C28.3612 29.6667 27.7083 30.3196 27.7083 31.125C27.7083 31.9304 28.3612 32.5833 29.1666 32.5833Z" stroke="#666666" stroke-width="2" stroke-linecap="round" stroke-linejoin="round"/>
<path d="M1.45831 1.95834H7.29165L11.2 21.4854C11.3333 22.1568 11.6986 22.76 12.2318 23.1892C12.765 23.6184 13.4322 23.8465 14.1166 23.8333H28.2916C28.976 23.8465 29.6433 23.6184 30.1765 23.1892C30.7097 22.76 31.075 22.1568 31.2083 21.4854L33.5416 9.25001H8.74998" stroke="#666666" stroke-width="2" stroke-linecap="round" stroke-linejoin="round"/>
</g>
<defs>
<clipPath id="clip0_51550_70464">
<rect width="35" height="35" fill="white" transform="translate(0 0.5)"/>
</clipPath>
</defs>
</svg>
